<svg version="1.2" xmlns="http://www.w3.org/2000/svg" viewBox="0 0 1280 720" width="1280" height="720"><title>Novo Projeto</title><style>.s0{fill:#2d66bf}</style><g id="&amp;lt;Group&amp;gt;"><g id="&amp;lt;Group&amp;gt;"><g id="&amp;lt;Group&amp;gt;"><g id="&amp;lt;Group&amp;gt;"><path id="&amp;lt;Path&amp;gt;" class="s0" d="M1071.5 293.1l-59.2-111.2.1.1-49.9-97.3H829.7l111.5 211.9-57.1 105h-23.5c-11.5 24.8-27.5 47.7-48.1 68.5-17.8 17.8-37.2 32.1-58 43.2h200.8l44.6-103.9 52.7 103.9h134.2z"/></g><g id="&amp;lt;Group&amp;gt;"><path id="&amp;lt;Path&amp;gt;" class="s0" d="M184.7 509.1l119.6.9L440.8 74.8H313.4v1zM801.3 140.2C757.8 96.1 705.7 74 645 74l-188.8.8-39.7 125.4h224.8c26.3 0 48.6 9.6 67 28.7 18.3 19.2 27.5 42.5 27.5 69.9 0 27.4-9.2 50.7-27.5 69.9-18.4 19.1-40.7 28.7-67 28.7-26 0-48.3-9.6-66.8-28.9-18.6-19.3-27.8-42.5-27.8-69.7 0-27.2 18.8-60.8 37.2-80.1l-153.9-.1c-3.1 8.1-5.6 16.5-7.7 25.1-4.1 17.5-6.2 35.8-6.2 55.1 0 62.2 22 115.3 65.9 159.2 44 44 97 66 159.3 66 62.5 0 115.7-21.9 159.5-65.7 43.7-43.7 65.6-96.9 65.6-159.5 0-61.6-21.8-114.4-65.1-158.6zM264 199L227.6 74.8H80L174.6 488z"/></g><path id="&amp;lt;Path&amp;gt;" class="s0" d="M184.7 509.1l119.6.9L440.7 75.1l-127.3-.3v1zM1077.5 280l103.7-192h-126.3l-34.7 84.2z"/></g></g><g id="&amp;lt;Group&amp;gt;"><path id="&amp;lt;Compound Path&amp;gt;" class="s0" d="M191.2 605v-18.4h54.1V605H229v64.8h-21.7V605zM346.2 586.6v17.7h-27.7v14.2h25.9v17.1h-25.9v16.5h28.7v17.7h-50.4v-83.2zM433.6 602.2q-1.4-2.6-4.6-2.6-2.4 0-3.9 1.3-1.4 1.3-2.2 4.6-.7 3.2-1 8.8-.2 5.5-.2 13.9t.2 13.9q.3 5.6 1 8.9.8 3.2 2.2 4.5 1.5 1.3 3.9 1.3 2 0 3.3-1 1.3-1 2-3.3.7-2.4 1-6.3.3-3.9.3-9.8h20.9v6.2q.1 8.7-2.3 14.3-2.3 5.6-6.2 8.8-3.8 3.2-8.8 4.3-4.9 1.1-10.2 1.1-9.1 0-14.9-2.2-5.8-2.2-9.1-7.4-3.2-5.2-4.5-13.4-1.2-8.2-1.2-19.9 0-11.9 1.5-20.2 1.4-8.2 4.9-13.4 3.5-5.1 9.2-7.4 5.7-2.2 14.1-2.2 7.4 0 12.5 1.8 5.1 1.9 8.3 5.3 3.3 3.5 4.7 8.3 1.5 4.8 1.5 10.9v5.3h-21v-4.7q0-7.1-1.4-9.7zM535.2 586.6l14 51.3h.3v-51.3h20.3v83.2H546l-14.5-51.4h-.2v51.4H511v-83.2z"/><path id="&amp;lt;Compound Path&amp;gt;" fill-rule="evenodd" class="s0" d="M625.7 608.3q1.5-8.2 5-13.4 3.5-5.2 9.3-7.5 5.7-2.4 13.9-2.4 8.3 0 14 2.4 5.7 2.3 9.2 7.5 3.5 5.2 5.1 13.4 1.5 8.3 1.5 19.9 0 11.7-1.5 19.9-1.6 8.2-5.1 13.4-3.5 5.2-9.2 7.4-5.7 2.2-14 2.2-8.2 0-13.9-2.2-5.8-2.2-9.3-7.4-3.5-5.2-5-13.4t-1.5-19.9q0-11.6 1.5-19.9zm21.1 33.8q.3 5.6 1 8.9.8 3.2 2.2 4.5 1.5 1.3 3.9 1.3 2.5 0 3.9-1.3 1.5-1.3 2.3-4.5.7-3.3.9-8.9.3-5.5.3-13.9t-.3-13.9q-.2-5.6-.9-8.8-.8-3.3-2.3-4.6-1.4-1.3-3.9-1.3-2.4 0-3.9 1.3-1.4 1.3-2.2 4.6-.7 3.2-1 8.8-.2 5.5-.2 13.9t.2 13.9z"/><path id="&amp;lt;Compound Path&amp;gt;" class="s0" d="M759.8 586.6v65.5h26.7v17.7h-48.4v-83.2z"/><path id="&amp;lt;Compound Path&amp;gt;" fill-rule="evenodd" class="s0" d="M837.8 608.3q1.5-8.2 5-13.4 3.5-5.2 9.2-7.5 5.7-2.4 14-2.4t14 2.4q5.7 2.3 9.2 7.5 3.5 5.2 5 13.4 1.5 8.3 1.6 19.9-.1 11.7-1.6 19.9t-5 13.4q-3.5 5.2-9.2 7.4-5.7 2.2-14 2.2t-14-2.2q-5.7-2.2-9.2-7.4-3.5-5.2-5-13.4t-1.5-19.9q0-11.6 1.5-19.9zm21.1 33.8q.2 5.6 1 8.9.8 3.2 2.2 4.5 1.5 1.3 3.9 1.3 2.5 0 3.9-1.3 1.5-1.3 2.2-4.5.8-3.3 1-8.9.3-5.5.3-13.9t-.3-13.9q-.2-5.6-1-8.8-.7-3.3-2.2-4.6-1.4-1.3-3.9-1.3-2.4 0-3.9 1.3-1.4 1.3-2.2 4.6-.8 3.2-1 8.8-.2 5.5-.2 13.9t.2 13.9z"/><path id="&amp;lt;Compound Path&amp;gt;" class="s0" d="M1006.1 624.6v45.2h-14.6l-.5-7.3h-.2q-1.1 2.7-3 4.4-1.9 1.8-4.3 2.7-2.4.8-5.1 1.2-2.8.3-5.6.3-8.3 0-13.1-2.7-4.7-2.8-7.2-8.2-2.4-5.5-3.1-13.6-.6-8-.6-18.4 0-10.5 1.2-18.5 1.2-8.1 4.7-13.5 3.4-5.5 9.5-8.4 6-2.8 15.6-2.8 5.7 0 10.6 1.5 4.8 1.5 8.3 4.9 3.5 3.4 5.5 8.7 1.9 5.3 1.9 12.8h-20.9q0-6.6-1.2-9.6-1.2-3.6-5-3.7-2.7 0-4.3 1.3-1.5 1.3-2.3 4.6-.8 3.2-1 8.8-.2 5.5-.2 13.9t.2 13.9q.2 5.6 1 8.9.8 3.2 2.2 4.5 1.5 1.3 3.9 1.3 1.8 0 3.1-.7 1.4-.7 2.3-2.6c.6-1.3 1.1-3.1 1.4-5.4q.6-3.4.6-8.8h-7.7v-14.7zM1060.8 586.6h21.7v83.2h-21.7z"/><path id="&amp;lt;Compound Path&amp;gt;" fill-rule="evenodd" class="s0" d="M1179.5 586.6l20.3 83.2h-23.1l-2.2-14.5h-17.3l-2.2 14.5h-22.7l19.9-83.2zm-13.7 17l-6 35.3h12.2l-6-35.3z"/></g></g></svg>